<?xml version="1.0" encoding="UTF-8"?>
<!DOCTYPE svg PUBLIC "-//W3C//DTD SVG 1.1//EN" "http://www.w3.org/Graphics/SVG/1.1/DTD/svg11.dtd">
<!-- Creator: CorelDRAW 2021 (64-Bit) -->
<svg xmlns="http://www.w3.org/2000/svg" xml:space="preserve" width="195.868mm" height="233.413mm" version="1.1" style="shape-rendering:geometricPrecision; text-rendering:geometricPrecision; image-rendering:optimizeQuality; fill-rule:evenodd; clip-rule:evenodd"
viewBox="0 0 4716.62 5620.74"
 xmlns:xlink="http://www.w3.org/1999/xlink"
 xmlns:xodm="http://www.corel.com/coreldraw/odm/2003">
 <defs>
  <style type="text/css">
   <![CDATA[
    .fil7 {fill:#6B4F12}
    .fil6 {fill:#83631C}
    .fil5 {fill:#957224}
    .fil4 {fill:#A5822C}
    .fil3 {fill:#B98B2E}
    .fil2 {fill:#CDAA3D}
    .fil1 {fill:#DEC352}
    .fil0 {fill:#FAE96A}
   ]]>
  </style>
 </defs>
 <g id="Capa_x0020_1">
  <metadata id="CorelCorpID_0Corel-Layer"/>
  <path class="fil0" d="M1350.91 2562.07c40.71,-29.82 116.44,-365.78 229.39,-535.28 93.98,-141.04 90.14,-140.76 198.55,-260.25 59.53,-65.62 168.24,-153.39 242.34,-203.71 13.88,-9.43 24.22,-16.49 38.22,-25.5 166.19,-106.95 387.27,-200.26 568.6,-272.53l180.31 -74.58c33.62,-14.48 55.11,-26.73 87.31,-40.13l262.9 -125.81c128.51,-69.19 270.64,-168.05 379.6,-264 24.99,-22 41.77,-47.34 68.55,-65.27 -1.3,58.22 -102.41,274.07 -108.33,299.5 43.35,-31.76 114.61,-242.18 142.23,-297.45 7.88,-15.77 15.52,-33.79 23.71,-46.55 17.61,-27.43 11.44,-3.1 24.5,-40.92 13.5,-39.1 32.17,-60.4 53.03,-91.67 109.15,-163.58 300.27,-266.8 499.61,-209.14 210.09,60.77 288.95,290.64 156.48,457.41 -10.24,12.89 -25.12,26.92 -37.74,38.72l-46.18 30.29c0,-54.24 24.91,-70.76 18.96,-146.36 -7.05,-89.4 -84.52,-161.46 -155.26,-176.14 -209.81,-43.54 -374.02,92.67 -475.16,259.06 -12.62,20.76 -25.04,30.92 -25.77,63.44 5.83,-6.71 1.28,-0.89 8.08,-11.03l22.49 -34.86c11.04,-16.6 18.68,-30.07 31.68,-44.79 69.79,-79.04 26.17,-43.64 111.22,-118.18 17.65,-15.47 23.8,-20.63 43.09,-33.38 155.31,-102.69 380.11,-80.16 411.84,72.67 13.75,66.22 -8.38,121.28 -10.28,144.1 -49.18,-11.46 -57.76,-61.11 -146,-70.96 -110.44,-12.32 -184.78,37.77 -248.15,116.5 -9.84,12.23 -17.49,17.75 -27.41,29.93l-136.41 188.58c-15.54,20.61 -31.69,42.13 -48.87,59.46l-136.75 130.89c-13.64,11.46 -15.86,14.42 -31.06,26.29l-126.49 90.17c-116.99,71.47 -242.37,127.97 -372.5,169.14 -233.06,73.74 -329.83,72.48 -528.52,121.45 -27.13,6.69 -58.46,17.09 -85.59,22.73 -119.29,24.81 -279.63,80.57 -385.53,143.36l-7.98 4.76c37.98,-0.85 108.57,-43.85 147.33,-56.58l321.32 -92.87c61.59,-15.65 113.36,-19.65 179.57,-30.71 51.67,-8.63 117.61,-24.73 169.05,-34.86 90.33,-17.79 238.64,-60.59 322.44,-91.75 226.89,-84.37 460.94,-240.21 605.39,-433.28l104.55 -150.34c7.26,-10.14 14.33,-18.86 21.94,-29.04 44.85,-60.01 95.46,-115.79 166.61,-145.62 49.16,-20.61 138.28,-18.61 166.58,20.02 -76,0 -146.89,-23.41 -231.1,62.02 -48.42,49.12 -36.2,29.71 -74.84,84.46 -86.72,122.86 -128.9,248.76 -188.35,391.52 -12.01,28.84 -20.57,42.72 -31.91,70.04 -38.89,93.69 -59.72,123.6 -113.51,205.1 -32.62,49.44 -61.13,71.02 -97.13,113.15 -46.6,54.55 -104.63,100.41 -164.23,141.64l-188.81 129.81c-12.02,6.8 -20.78,10.11 -32.63,18.34 -143.58,99.69 -366.25,273.84 -269.01,474.95 12.9,26.67 24.76,38.07 45.36,56.6 29.44,26.49 39.12,20.95 71.73,36.6 -14.39,-39.74 -125.66,-45.58 -113.26,-194.06 12.73,-152.38 131.81,-249.66 252.17,-329.74 196.16,-130.5 355.12,-201.17 513.83,-403.77 27.5,-35.1 51.2,-68.13 73.4,-105.02 23.99,-39.87 42.73,-78.56 64.04,-120.76 78.57,-155.62 219.79,-668.72 493.34,-595.34 48.72,13.07 75.42,41.86 104.24,74.19 32.67,36.65 50.16,65.62 71.48,113.31 34.73,77.66 60.14,194.05 74.69,288.52 19.92,129.38 37.53,217.61 -5.41,322.4 -17.17,41.9 -45.41,72.49 -44.3,134.58 2.15,119.85 109.13,287.45 177.46,371.1 15.84,19.39 24.63,29.55 41.25,47.97 167.6,185.69 -257.84,169.01 -160.85,371.13 -60.67,0 -166.46,83.48 -214.92,122.81 -24.92,20.23 -55.23,17.38 -97.32,17.38 37.75,51.53 152.56,10.47 210.35,12.17 36.98,1.09 45.77,8.96 52.76,30.59 12.79,39.57 19.18,103.19 -24.18,120.04 -36.67,14.25 -102.12,-23.65 -124.23,-35.35 2.63,31.59 46.87,48.52 76.47,50.98 -2.62,31.41 -10.45,21.42 -25.47,44.63 -7.75,11.98 -17.68,40.69 -18.18,57.7 -2.07,70.73 56.51,141.18 -32.35,229.5 -70.51,70.08 -218.41,37.06 -299.37,11.67l-113.63 -39.3c-21.04,-8.46 -32.3,-15.76 -52.49,-23.97l-572.45 -249.56c-89.57,-58.46 -190.22,-115.78 -256.12,-202.68 -6.11,-8.06 -8.32,-12.26 -16.8,-21.44 -16.24,-17.57 -0.7,-9.34 -21.4,-16.83 44.73,84.54 82.87,117.73 152.1,172.88 52.94,42.18 116.65,85.57 175.95,117.17l198.99 94.13c28.44,12.39 75.59,21.63 91.07,42.75 -328.79,0 -537.21,685.72 -571.8,951.16 -22.24,170.64 61.1,311.42 126.69,437.04 86.14,164.99 153.13,283.74 258.98,441.96 59.81,89.4 128.29,167.89 196.97,249.09l92.39 98.77c7.38,7.07 8.68,9.87 15.31,16.55 5.26,5.3 11.03,9.98 16.7,15.17 68.81,63.06 157.29,157.45 210.23,235.83 24.62,36.44 31.63,64.65 49.62,77.83 -3.42,-41.08 -69.71,-126.79 -98.21,-163.05l-298.51 -319.59c-27.97,-31.39 -53.93,-64.93 -79.39,-99.03 -70.8,-94.82 -150.23,-217.53 -207.74,-321.15l-157.18 -288.87c-24.58,-52.02 -66.09,-137.99 -80.39,-187.24 -43.13,-148.53 -0.06,-320.82 42.85,-449.1 28.7,-85.81 62.42,-168.99 97.49,-252.98 61.49,-147.26 158.17,-341.3 314.95,-398.74 131.07,-48.02 231.69,18.69 344.26,59.14 20.94,7.52 43.27,13.67 66.4,22.8 80.05,31.59 203.26,73.63 295.3,56.9 17.69,-3.22 54.05,-16.65 65.88,-23.33 18.24,-10.29 30.94,-26.74 46.55,-42.66 90.89,-92.63 -9.68,-193 38.11,-280.5 28.64,-52.44 71.02,-23.76 96.3,-82.16 22.23,-51.38 1.7,-101.51 -21.49,-136.15 49.52,0 84.46,-28.7 100.69,-71.4 31.81,-83.73 -22.96,-67.82 -38.64,-118.69 -26.89,-87.26 117.91,-133.37 166.11,-174.36l16.71 -15.15c80.48,-80.33 11.68,-125.09 -45.87,-195.35 -75.37,-92.02 -157.45,-221 -181.83,-340.87 -29.85,-146.79 104.12,-73.85 54.87,-437.04 -7.01,-51.74 -10.5,-103.79 -22.23,-149.82 -12,-47.1 -22.18,-94.24 -37.79,-140.64 -23.92,-71.11 -48.85,-113.77 -92.08,-169.18 -15.71,-20.14 -29.11,-30.42 -41.02,-48.19 40.32,-19.35 103.92,-16.47 144.7,1.86 22.7,10.21 32.76,17.18 48.13,34.71 124.81,142.36 10.33,308.86 4.71,333.02 19.36,-7.01 6.43,0.74 21.38,-16.85 61.9,-72.84 74.98,-243.83 -25.94,-341.81 -38.31,-37.19 -64.54,-36.42 -135.63,-36.42 39.46,-58.93 125.31,-125.73 114.6,-260.86 -13.14,-165.82 -140.24,-258.75 -282.93,-290.87 -108.41,-24.41 -217.26,-2.52 -310.89,53.41 -99.05,59.17 -174.44,148.17 -226.06,251.85 -40.69,81.72 -52.45,88.99 -131.37,155.38l-51.78 43.8c-98.15,76.69 -165.98,130.74 -286.2,191.72l-188.93 97.82c-21.81,10.74 -42.28,17.75 -65.91,29.67 -122.03,61.55 -401.48,163.25 -539.44,225.23 -21.4,9.61 -41.92,18.77 -66.08,29.5l-63.53 32.05c-106.72,53.76 -204.6,106.58 -301.12,176.8 -76.67,55.78 -196.12,154.77 -251.21,226.71 -86.66,113.19 -164.53,200.42 -225.72,347.78 -58.01,139.72 -69.59,222.64 -120.74,357.18 -4.26,11.21 -10.45,23.71 -13.18,31.42 -4.15,11.7 -7.37,30 -9.95,41.03zm2899.89 140.69c9.15,0 23.08,-11.76 23.08,-11.76l18.29 -18.29 23.51 -13.5 23.95 -14.81 33.09 -20.9 26.13 -15.68 20.03 -12.63 23.51 -10.45 20.03 -4.79 25.69 0 15.24 0 5.66 5.66 6.97 6.97 0 16.11 0 12.63 0 10.02 -7.84 10.02 -10.45 16.11 -10.89 14.37 -13.5 13.5 -17.42 7.4 -34.4 2.61 -28.31 0 -27.87 0 -31.79 0 -36.14 7.4 -17.85 0 -28.74 0z"/>
  <path class="fil0" d="M3128.76 1797.4c-10.51,14.34 -64.23,44.27 -84,56.19l-750.51 453.84c-15.19,8.74 -25.4,17.59 -42.85,27.24l-181.65 105.1c-142.68,86.16 -523.46,284.26 -663.91,330.16 -158.61,51.84 -172.81,65.84 -347.68,79.26 -156.76,12.03 -317.67,-7.78 -411.86,-143.27 -9.96,-14.33 -17.93,-28.74 -27.1,-43 -76.27,-118.58 -44.12,-289.47 13.7,-398.29 48.57,-91.4 120.31,-139.37 131.75,-155 -95.97,22.36 -282.77,275.11 -188.59,526.32 36.93,98.5 96.31,157.16 186.39,202.31 104.52,52.39 204.78,40.38 333.56,29.66 -20.23,17.59 -80.79,27.87 -123.48,42.2 -92.1,30.9 -289.91,92.99 -375.55,140.6 -107.52,59.78 -211.32,102.56 -311.87,204.28 -29.98,30.33 -58,53.07 -84.04,88.01 -98.67,132.41 -188.67,273.34 -163.94,507.31 7.51,71.03 21.86,136.08 54.09,200.8 19.55,39.25 75.31,118.95 107.68,153.58l69.17 58.27c21.25,15.2 2.52,10.81 31.39,13.21 -15.6,-23.3 -60.01,-48.62 -80.24,-72.7 -24.27,-28.89 -49.34,-57.88 -69.99,-89.32 -97.73,-148.82 -114.67,-347.01 -60.96,-507.97 101.92,-305.4 391.49,-478.87 681.76,-586.31 36.24,-13.42 79.84,-30.57 117.21,-42.09l235.02 -77.22c355.84,-119.92 385.53,-113.91 727.74,-298.19l851.79 -499.13c-21.6,80.88 -132.16,100.93 -133.86,433.35 -0.47,91.69 19.6,173.34 32.82,253.93 43.76,266.68 95.63,479.16 14.13,755.14 -46.64,157.93 -84.91,212.61 -167.91,329.12 -11.36,15.95 -20.61,23.83 -34.61,41.85 -61.72,79.45 -218.91,200.2 -313.89,253.24 -33.66,18.8 -57.99,30.78 -90.05,50.14 -72,43.48 -130.35,64.97 -187.17,99.58 -32.22,19.63 -59.55,34.18 -89.97,56.59 -89.47,65.94 -85.88,63.79 -161.22,138.28 -170.98,169.04 -223.1,386.32 -168.21,621.95 5.01,-7.9 3.17,0.7 5.11,-14.02 1.24,-9.41 0.91,-6.79 0.13,-15.79 -3.75,-42.77 -11.72,-31.9 -11.62,-123.12 0.07,-65.46 3.07,-111.71 18.27,-160.17 76.77,-244.64 216.57,-349.82 418.62,-473.49 37.93,-23.22 83.23,-37.23 130.24,-48.18 -7.79,-5.89 7.16,-4.13 -19.12,-6.37l361.27 -231.34c48.98,-41.64 110.86,-95.71 148.52,-144.6l63.73 -82.83c120.44,-181.38 175.01,-334.14 178.3,-567.55 0.15,-10.67 0.95,-19.35 1.51,-29.39 3.95,-72.01 -8.52,-170.35 -18.57,-239.8 -13.08,-90.45 -26.98,-166.98 -43.88,-255.61 -50.76,-266.34 -35.67,-493.83 149.95,-679.45 22.24,-22.24 52.86,-46.07 78.65,-67.91l630.48 -414.56c55.56,-55.12 52.97,-48 108.3,-114.72 11.64,-14.04 25.59,-28.17 30.38,-46.09 -29.06,19.46 -69.37,66.73 -97.05,94.12 -17.9,17.71 -31.88,26.49 -51.11,44.47 -17.45,16.31 -37.72,29.66 -57.5,44.46 -38.76,29 -78.8,50.21 -122.95,74.59 -157.74,87.08 -271.63,109.07 -442.98,143.26 -147.91,29.51 -340.61,42.66 -511.94,74.3 -31.76,5.86 -47.59,11.13 -77.58,18.01 -188.01,43.1 -388.87,126.05 -529.84,260.31 -19.89,18.95 -33.84,27.09 -54.29,47.67 -17.38,17.49 -28.18,32.9 -44.33,51.26l-63.24 83.32c-8.06,11.71 -11.17,18.52 -20.02,30.95 -17.15,24.07 -23.16,40.6 -36.38,65.58 20.71,-7.5 38.54,-47.24 61.84,-78.35 177.57,-237.04 407.59,-367.74 697.97,-429.91l116.76 -23.43c190.92,-34 396.59,-35.01 615.98,-91.34 35.16,-9.03 78.16,-30.39 113.25,-33.32z"/>
  <path class="fil0" d="M1306.31 1574.38l0 140.19c0,194.36 39.65,304.19 -21.33,513.94 -63.84,219.61 -181.18,384.54 -456.59,384.54l0 6.37c56.92,0 -2.64,10.13 96.17,0.63 96.33,-9.26 167.86,-44.41 233.61,-110.53 178.68,-179.72 174.46,-432.36 219.95,-684.9 12.92,-71.74 53.47,-193.96 81.12,-262.98l67.79 -155.24c66.68,-136.92 226.93,-346.86 352.76,-443.77 138.17,-106.41 88.01,-76.32 262.47,-189.96 50.39,-32.82 254.49,-134.58 311.04,-147.76l-157.22 46.69c-19.63,9.15 -31.15,16.68 -51.27,25.19 -35.95,15.21 -64.55,32.08 -97.47,49.09 -92.94,48.03 -190.36,124.8 -269.37,183.06 -57.48,42.38 -175.47,164.68 -221.31,224.75 -72.19,94.59 -136.13,190.17 -185.56,298.73 -3.82,8.38 -7.55,18.57 -10.98,27.25 -7.65,19.4 -13.07,35.09 -22.14,54.33 -67.03,142.18 -81.49,323.73 -99.82,352.61 -0.64,-28.82 -6.37,-25.32 -6.37,-57.35 0,-331.98 7.31,-483.47 120.33,-797.27 23.64,-65.65 84.91,-198.49 124.42,-257.91l75.19 -115.97c51.25,-77.01 113.7,-145.03 178.69,-210.02 115.14,-115.15 191.85,-163.48 332.45,-247.42 124.59,-74.39 407.15,-168.37 602.67,-168.37 196.11,0 262.31,-0.45 451.64,58.14 26.56,8.22 70.6,24.7 102.74,24.7 -16.81,-14.61 -27.39,-13.76 -52.87,-23.6 -373.17,-144.02 -740.56,-114.69 -1098.38,63.95 -119.95,59.89 -185.9,109.53 -283.46,188.08 -18.8,15.14 -30.17,31.52 -49.07,46.51 -53.5,42.43 -174.69,185.57 -220.2,251.35 -14.38,20.78 -25.49,35.95 -39.18,56.4 -154.47,230.66 -270.45,601.95 -270.45,876.55z"/>
  <path class="fil0" d="M771.04 4696.76c0,165.3 34.53,301.35 138.17,428.96 98.37,121.12 210.66,214.57 356.18,274.67 30.02,12.4 42.17,21.57 75.14,33.19 27.69,9.75 48.78,19.11 74.77,27.18 26.74,8.31 58.48,14.24 87.21,21.12 46.44,11.11 127.68,24.15 186.13,24.15l0 -6.37c-26.91,0 -46.11,-5.96 -72.79,-10.05 -29.24,-4.49 -43.84,-5.59 -71.17,-11.67 -43.1,-9.59 -88.95,-23.44 -129.37,-36.31 -20.33,-6.47 -38.05,-14.24 -59.86,-22.98 -125.46,-50.26 -257.83,-132.8 -350.37,-229.5l-74.72 -90.95c-254.17,-359.15 -99.77,-707.12 208.45,-938.52 18.48,-13.87 32.25,-25.67 51.48,-37.73 174.56,-109.56 264.65,-139.9 436.75,-225.96 130.44,-65.23 183,-86.24 316.53,-180.5 311.32,-219.75 418.54,-499.59 457.81,-873.98 9.26,-88.28 6.84,-87.48 0.94,-158.36 -14.93,23.52 -12.07,74.38 -12.58,95.75 -2.73,115.14 -56.06,357.91 -108.48,465.02 -46.31,94.61 -97.67,197.28 -173.57,278.86l-146.93 139.82c-68.25,57.68 -235.79,149.07 -320.95,188.83 -28.03,13.09 -48.76,24.29 -76.45,38.25l-308.09 150.71 -139.31 90.09 -149.03 131.35c-105.69,109.72 -195.9,263.46 -195.9,434.95z"/>
  <path class="fil0" d="M2026.37 4282.57l0 12.74c40.42,0 53.2,-6.37 95.58,-6.37 164.57,0 225.62,-6.38 393.82,39.49 207.79,56.68 384.49,168.51 534.93,318.95 126.61,126.61 220.98,265.76 331.36,375.96 54.58,54.49 119.4,126.51 179.13,171.35 15.97,11.98 25.31,25.58 45.5,30.97l-539.95 -607.05c-100.58,-100.07 -207.86,-174.83 -332.93,-240.57 -142.42,-74.85 -338.59,-114.59 -503.51,-114.59l-156.83 8.85c-18.86,3.48 -27.98,8.67 -47.09,10.27z"/>
  <path class="fil0" d="M1612.17 3377.71c-26.87,2.24 -43.21,14.86 -62.49,26.72 -45.93,28.27 -148.25,63.58 -204.31,82.44l-226.26 60.49c-17.05,5.42 -17.08,6.97 -32.44,12.16l-109.29 37.27c-59.35,21.07 -141.19,61.36 -192.42,94.33 -104.38,67.18 -175.76,140.34 -236.65,241.26 -52.47,86.95 -87.24,192.14 -83.42,299.33 3.91,109.82 23.28,148.08 3.14,263.98 -7.52,43.27 -34.83,106.52 -56.31,134.85 -107.17,141.28 -269.5,122.34 -411.7,47.1 19.06,52.66 184.55,91.82 292.11,62.71 88.76,-24.02 155.94,-114.46 185.05,-197.29 57.22,-162.79 -34.04,-290.25 49.19,-511.56 8.93,-23.74 20.65,-39.58 32.26,-63.32 33.92,-69.34 118,-164.94 178.72,-209.99 20.02,-14.85 33.76,-26.89 55.46,-40.12 151.51,-92.4 310.77,-143.7 479.25,-196.21 27.54,-8.58 47.82,-11.55 74.97,-20.61 56.12,-18.73 154.92,-54.87 202.72,-84.03l48.46 -28.01c6.32,-4.52 9.94,-7.99 13.98,-11.5z"/>
  <path class="fil0" d="M312.24 4065.91c0,30.75 12.04,51.08 12.75,82.84 23.57,-17.27 6.37,-33.17 6.37,-95.58 0,-295.52 282.39,-519.6 535.23,-611.77 21.5,-7.84 37.95,-12.39 61.03,-21.81 72.16,-29.45 232.11,-71.43 312.67,-95.15 138.83,-40.89 230.97,-75.76 350.2,-146.84 73.94,-44.08 227.67,-179.15 244.71,-252.32 -19.95,13.36 -22.28,26.9 -37.17,45.66 -67.59,85.15 -134.9,130.86 -224.07,190.12 -19.32,12.84 -30.01,17.94 -53.2,29.64 -72.64,36.68 -82.31,44.28 -173.81,74.7 -43.99,14.63 -82.81,30.73 -125.15,40.53l-194.13 54.39c-49.41,16.89 -68.25,16.94 -130.94,41.11 -22.68,8.74 -39.46,12.7 -61.17,21.67 -37.32,15.42 -76.31,32.31 -113.4,52.28l-75.06 46.01c-11.47,7.7 -16.83,9.62 -27.88,16.72 -31.54,20.27 -61.12,53 -90.32,75.36 -118.45,90.69 -216.65,278.7 -216.65,452.43z"/>
  <path class="fil1" d="M2427.82 427.38l138.1 -78.56c25.02,-14.11 47.83,-20.7 74.28,-34.05 224.87,-113.51 585.7,-167.13 837.74,-109.12 106.32,24.47 153.47,28.36 259.86,71.5 32.37,13.13 50.24,20.94 85.54,29.16 -32.76,-44.71 -263.51,-108.37 -328.85,-123.58 -117.73,-27.42 -302.63,-29.81 -418.7,-12.24 -161.99,24.53 -369.19,81.36 -509.01,166.45 -31.94,19.43 -120.95,63.56 -138.96,90.44z"/>
  <path class="fil1" d="M3867.94 1568c10.68,-5.12 20.77,-7.86 31.79,-12.82 133.63,-60.13 298.43,-99.02 419.17,20.66 28.44,28.19 74.04,80.81 103.42,100.49 0,-76.36 -33.37,-110.98 -74.86,-148.17 -36.4,-32.63 -102.34,-64.92 -154.49,-68.97 -34.46,-2.67 -52.17,-2.17 -95.29,0.8 -42.18,2.91 -128.57,38 -165.72,57.32 -33.06,17.19 -58.57,30.29 -64.01,50.69z"/>
  <path class="fil0" d="M4167.43 1918.48c28.88,7.71 12.76,15.2 34.76,13.73 17.84,-1.19 -15.5,-5.75 13.78,-2.35 0.67,0.08 28.22,12.16 29.41,12.6 20.3,7.68 8.84,6.07 30.38,1.5 -10.52,-15.71 -21.96,-29.82 -31.86,-44.61 23.98,6.41 13.82,8.14 35.5,21.85 21.67,13.71 20.92,6.76 40.97,16.38 -9.51,-35.63 -74.66,-34.65 -68.28,-132.59 0.66,-10.11 42.17,-113.53 -65.54,-115.93 13.69,18.68 10.02,6.54 57.35,38.23 0,25.63 -3.41,33.37 -6.88,57.14 -6.82,46.83 50.81,118.86 -220.16,29.72l-97.94 -42.25c7.28,27.28 32.95,36.98 56.08,52.25 29.29,19.33 101.56,79.17 128.84,88.3l28.49 -0.48c15.4,2.56 6.11,6.36 23.97,8.27 14.5,1.55 1.39,3.9 11.13,-1.77z"/>
  <path class="fil0" d="M949.46 5423.2c-13.09,-17.86 -88.71,-66.93 -116.43,-93.86 -118.22,-114.86 -171.12,-204.07 -215.86,-364.01 -18.43,-65.92 -18.99,-132.05 -18.43,-205.08 0.38,-49.54 15.85,-85.04 19.36,-127.2 -0.99,1.14 -2.4,1.52 -2.76,3.6l-9.38 16.11c-0.65,1.3 -1.37,3.03 -2.01,4.36 -46.78,95.7 -26.78,251.5 3.61,356.06 22.34,76.84 48.73,135.9 97.91,201.59 38.6,51.56 183.96,194.45 243.99,208.44z"/>
  <path class="fil1" d="M2905.73 841.57c178.54,-14.86 354.27,-115.06 509.78,-197.53l169.46 -110.92c18.68,-12.74 23.96,-17.58 39.92,-30.18 19.42,-15.32 24.88,-16.04 39.13,-37.33 -15.24,4.07 -249.65,159.79 -303.65,187.01l-144.47 72.18c-51.56,26.01 -198.47,81.32 -255.4,95.07 -13.5,3.26 -22,4.88 -30.4,7.83l-24.36 13.87z"/>
  <path class="fil2" d="M1389.14 4333.55l-6.37 -6.37c-19.79,13.25 -35.94,30.61 -52.57,49.38l-87.44 116.47c-73.63,127.69 -96.95,217.87 -89.5,369.53 1.42,28.81 6.48,23.27 6.48,50.87l6.37 0c0,-79.06 -21.31,-155.41 24.52,-268.61 46.8,-115.59 61.18,-158.68 152.41,-255.42l46.1 -55.85z"/>
  <path class="fil2" d="M4403.21 2402.76c31.52,0 60.28,-35.46 104.04,-55.27 24.47,-11.08 22.83,-3.01 36.15,-21.2 -99.17,2.21 -138.01,131.88 -185.58,19.9l-3.78 -8.97c-4.51,-8.33 -4.04,-6.17 -8.18,-10.93 0,45.47 13.78,76.47 57.35,76.47z"/>
  <path class="fil3" d="M1567.57 4174.24l-109.35 81.81c-10.77,8.49 -30.53,23.77 -37.21,32.89 29.57,-6.89 37.61,-14.06 58.4,-30.82 10.97,-8.85 12.71,-12.09 24.33,-20.28l103.45 -74.97c15.85,-10.23 18.75,-6.82 24.11,-26.87 -11.43,6.05 -21.07,9.83 -34.05,16.92l-29.67 21.31z"/>
  <path class="fil3" d="M1650.41 4123.26c11.91,4.92 14.66,6.27 40.3,-10.62 17.43,-11.48 3.18,-3.1 14.1,-11.44 10.54,-8.05 17.98,-11.13 28.44,-16.17 3.99,-1.92 12.2,-5.54 17.11,-8.38 1.64,-0.95 6.55,-3.95 7.88,-4.86l6.88 -5.87c-25.03,2.08 -38.63,12.89 -59.5,23.34 -21.41,10.72 -42.63,16.85 -55.2,34.01z"/>
  <path class="fil4" d="M1765.11 4065.91l49.05 -21.04c1.67,-0.92 6.51,-3.99 7.84,-4.91l6.83 -5.91c-25.09,2.09 -37.54,13.02 -63.72,19.12l0 12.75z"/>
  <path class="fil3" d="M1382.77 4327.17l6.37 6.37c8.12,-5.43 10.3,-6.15 18.38,-14.3 6.07,-6.12 4.92,-2.89 7.91,-9.52 2.76,-6.12 7.13,-23.19 -15.11,-4.19 -9.2,7.86 -11.88,13.16 -17.56,21.64z"/>
  <path class="fil5" d="M2510.66 599.42c14.93,-3.48 18.83,-6.37 38.23,-6.37l0 -6.37c-18.42,0 -35.49,-3.31 -38.23,12.74z"/>
  <path class="fil5" d="M618.11 4626.67l6.37 0c0,-17.21 3.04,-17.57 6.37,-31.86 -17.56,12.86 -12.74,-0.45 -12.74,31.86z"/>
  <path class="fil4" d="M1618.55 3371.34c22.26,-5.95 14.31,-2.42 25.49,-19.12 -22.26,5.95 -14.31,2.42 -25.49,19.12z"/>
  <polygon class="fil4" points="2478.8,605.8 2504.28,605.8 2504.28,599.42 2478.8,599.42 "/>
  <path class="fil4" d="M1319.05 2613.05c13.71,-9.53 8.39,-0.93 12.74,-19.12 -13.71,9.53 -8.39,0.93 -12.74,19.12z"/>
  <path class="fil6" d="M350.47 4314.43c-9.53,-13.71 -0.93,-8.39 -19.12,-12.75 9.53,13.71 0.93,8.39 19.12,12.75z"/>
  <path class="fil5" d="M2427.82 427.38c-18.18,4.35 -9.59,-0.97 -19.12,12.74 18.63,-4.46 9.18,0.82 19.12,-12.74z"/>
  <path class="fil4" d="M1319.05 2613.05c-13.71,9.53 -8.39,0.93 -12.74,19.12 14.08,-9.79 7.92,-1.05 12.74,-19.12z"/>
  <path class="fil4" d="M2459.68 612.17c6.55,6.55 23.05,-9.17 7.39,-3.44 -0.15,0.06 -18.09,-7.26 -7.39,3.44z"/>
  <path class="fil6" d="M1421.01 5181.05c0,15.83 10.19,1.63 3.95,0 -0.08,-0.02 -3.95,-18.08 -3.95,0z"/>
  <path class="fil3" d="M3651.28 860.69c0,15.83 10.19,1.63 3.95,0 -0.08,-0.02 -3.95,-18.08 -3.95,0z"/>
  <polygon class="fil3" points="1969.02,1867.5 1962.64,1867.5 1967.96,1874.93 "/>
  <polygon class="fil5" points="790.16,2090.52 796.53,2090.52 791.22,2083.09 "/>
  <polygon class="fil4" points="1644.03,3352.22 1650.41,3352.22 1645.1,3344.79 "/>
  <polygon class="fil5" points="4288.51,2823.33 4288.51,2816.96 4281.07,2822.27 "/>
  <polygon class="fil6" points="350.47,4314.43 350.47,4320.8 357.91,4315.49 "/>
  <polygon class="fil4" points="949.46,5423.2 949.46,5429.57 956.9,5424.26 "/>
  <polygon class="fil3" points="3842.45,319.05 3842.45,325.42 3849.88,320.11 "/>
  <polygon class="fil2" points="4511.53,1217.53 4505.16,1217.53 4510.47,1224.97 "/>
  <polygon class="fil4" points="3491.98,1007.25 3485.61,1007.25 3490.92,1014.68 "/>
  <polygon class="fil7" points="3969.89,5614.36 3969.89,5620.74 3977.33,5615.43 "/>
  <polygon class="fil5" points="1510.22,2485.6 1503.85,2485.6 1509.16,2493.04 "/>
  <path class="fil7" d="M1427.38 5206.54c0.64,0.63 1.9,-2.8 1.9,-1.9l0 0c-0.13,0.12 -2.54,1.27 -1.9,1.9z"/>
  <path class="fil4" d="M1949.9 1880.24c0.63,0.63 1.9,-2.8 1.9,-1.9l0 0c-0.13,0.12 -2.54,1.27 -1.9,1.9z"/>
  <path class="fil4" d="M1930.78 1892.99c0.64,0.63 1.9,-2.79 1.9,-1.9l0 0c-0.13,0.12 -2.54,1.26 -1.9,1.9z"/>
  <path class="fil4" d="M4269.39 2816.96c0.63,0.63 1.9,-2.79 1.9,-1.9l0 0c-0.13,0.12 -2.54,1.26 -1.9,1.9z"/>
  <path class="fil5" d="M1669.52 3339.48c0.63,0.63 1.9,-2.8 1.9,-1.9l0 0c-0.13,0.12 -2.54,1.27 -1.9,1.9z"/>
  <path class="fil5" d="M2395.96 446.49l1.9 -1.9c-0.13,0.12 -2.54,1.26 -1.9,1.9z"/>
  <path class="fil4" d="M3683.15 452.87l1.9 -1.9c-0.13,0.12 -2.54,1.27 -1.9,1.9z"/>
  <path class="fil4" d="M2892.99 847.94l1.9 -1.9c-0.13,0.12 -2.54,1.26 -1.9,1.9z"/>
  <path class="fil5" d="M344.1 4186.99l1.9 -1.9c-0.13,0.12 -2.54,1.27 -1.9,1.9z"/>
  <path class="fil6" d="M337.73 4199.73l1.9 -1.9c-0.13,0.13 -2.54,1.27 -1.9,1.9z"/>
  <path class="fil4" d="M1860.69 4021.31l1.9 -1.9c-0.13,0.12 -2.54,1.26 -1.9,1.9z"/>
  <path class="fil3" d="M1969.02 4295.31l1.9 -1.9c-0.13,0.13 -2.53,1.27 -1.9,1.9z"/>
  <polygon class="fil5" points="1841.57,4027.68 1855.27,4024.18 "/>
  <polygon class="fil5" points="1841.57,4027.68 1828.83,4034.05 "/>
  <polygon class="fil5" points="790.16,2090.52 783.78,2096.9 "/>
  <polygon class="fil4" points="1981.76,1861.12 1969.02,1867.5 "/>
  <polygon class="fil3" points="1650.41,4123.26 1637.66,4129.64 "/>
  <polygon class="fil4" points="1637.66,4129.64 1631.29,4136.01 "/>
  <polygon class="fil4" points="1994.51,1854.75 1981.76,1861.12 "/>
  <polygon class="fil4" points="2007.25,1848.38 1994.51,1854.75 "/>
  <polygon class="fil4" points="2013.62,1842.01 2007.25,1848.38 "/>
  <polygon class="fil3" points="3867.94,1568 3854.24,1571.51 "/>
  <polygon class="fil6" points="363.22,4237.96 366.72,4251.66 "/>
  <polygon class="fil4" points="312.24,4282.57 299.5,4276.2 "/>
  <polygon class="fil4" points="3491.98,1007.25 3498.35,994.5 "/>
  <polygon class="fil5" points="318.61,4288.94 312.24,4282.57 "/>
  <polygon class="fil3" points="3842.45,319.05 3829.71,312.68 "/>
  <polygon class="fil5" points="324.99,4295.31 318.61,4288.94 "/>
  <polygon class="fil5" points="331.36,4301.69 324.99,4295.31 "/>
  <polygon class="fil4" points="1331.79,2593.93 1339.12,2581.5 "/>
  <polygon class="fil3" points="3829.71,312.68 3823.33,306.3 "/>
  <polygon class="fil4" points="1350.91,2562.07 1343.58,2574.49 "/>
  <polygon class="fil5" points="1510.22,2485.6 1516.59,2472.86 "/>
  <polygon class="fil4" points="1516.59,2472.86 1523.92,2460.43 "/>
  <polygon class="fil4" points="2727.31,2313.55 2730.82,2327.25 "/>
  <polygon class="fil4" points="2727.31,2313.55 2720.94,2300.81 "/>
  <polygon class="fil4" points="1618.55,3371.34 1612.17,3377.71 "/>
  <polygon class="fil4" points="2720.94,2300.81 2717.43,2287.11 "/>
  <polygon class="fil5" points="783.78,2096.9 771.04,2103.27 "/>
  <polygon class="fil5" points="771.04,2103.27 764.67,2109.64 "/>
  <polygon class="fil5" points="363.22,4237.96 359.71,4224.26 "/>
 </g>
</svg>
